{"title":"Paranormal.Activity.2010.TS.Xvid-CLASSiFiED","uid":5921107,"size":863701648,"categoryP":"video","categoryS":"movies","magnet":"?xt=urn:btih:5c393452853f034afaa237e5ed03d264e2d1d6cf&amp;dn=Paranormal.Activity.2010.TS.Xvid-CLASSiFiED&amp;tr=udp%3A%2F%2Ftracker.openbittorrent.com%3A80&amp;tr=udp%3A%2F%2Fopen.demonii.com%3A1337&amp;tr=udp%3A%2F%2Ftracker.coppersurfer.tk%3A6969&amp;tr=udp%3A%2F%2Fexodus.desync.com%3A6969","seeders":0,"leechers":1,"uploader":"SAFCukO09","files":60,"time":1288424266,"description":"Video\n\nID: 0\n\nFormat: MPEG-4 Visual\n\nFormat profile: Simple@L3\n\nFormat settings, BVOP: No\n\nFormat settings, QPel: No\n\nFormat settings, GMC: No warppoints\n\nFormat settings, Matrix: Default (H.263)\n\nCodec ID: XVID\n\nCodec ID/Hint: XviD\n\nDuration: 1h 24mn\n\nBit rate: 1 194 Kbps\n\nWidth: 720 pixels\n\nHeight: 368 pixels\n\nDisplay aspect ratio: 1.957\n\nFrame rate: 23.976 fps\n\nColor space: YUV\n\nChroma subsampling: 4:2:0\n\nBit depth: 8 bits\n\nScan type: Progressive\n\nBits/(Pixel*Frame): 0.188\n\nStream size: 721 MiB (89%)\n\nWriting library: XviD 1.2.1 (UTC 2008-12-04)\n\n\n\nAudio\n\nID: 1\n\nFormat: MPEG Audio\n\nFormat version: Version 1\n\nFormat profile: Layer 3\n\nMode: Joint stereo\n\nMode extension: MS Stereo\n\nCodec ID: 55\n\nCodec ID/Hint: MP3\n\nDuration: 1h 24mn\n\nBit rate mode: Constant\n\nBit rate: 128 Kbps\n\nChannel(s): 2 channels\n\nSampling rate: 44.1 KHz\n\nStream size: 77.4 MiB (10%)\n\nAlignment: Aligned on interleaves\n\nInterleave, duration: 26 ms (0.63 video frame)\n\nInterleave, preload duration: 522 ms\n\n\n\nRelease Notes:\n\nThanx to IMAGiNE and LKRG for the audio and ELEKTRI4KA for the video. Beginning\n\nused cam audio, as the line was missing 3 1/2 minutes. Filtered the cam audio\n\nas well as the colors, brightness ect. E","torrent":{"xt":"urn:btih:5c393452853f034afaa237e5ed03d264e2d1d6cf","amp;dn":"Paranormal.Activity.2010.TS.Xvid-CLASSiFiED","amp;tr":["udp%3A%2F%2Ftracker.openbittorrent.com%3A80","udp%3A%2F%2Fopen.demonii.com%3A1337","udp%3A%2F%2Ftracker.coppersurfer.tk%3A6969","udp%3A%2F%2Fexodus.desync.com%3A6969"],"infoHash":"5c393452853f034afaa237e5ed03d264e2d1d6cf","infoHashBuffer":{"type":"Buffer","data":[92,57,52,82,133,63,3,74,250,162,55,229,237,3,210,100,226,209,214,207]},"announce":[],"urlList":[]}}